<svg xmlns="http://www.w3.org/2000/svg" width="295" height="295" viewBox="0 0 295 295" fill="none"><path d="M0 8.62573C0 3.86187 3.86187 0 8.62573 0H286.374C291.138 0 295 3.86187 295 8.62573V286.374C295 291.138 291.138 295 286.374 295H8.62573C3.86187 295 0 291.138 0 286.374V8.62573Z" fill="black"></path><path d="M138.464 129.386H126.309C125.591 125.89 124.333 122.819 122.536 120.172C120.771 117.526 118.615 115.304 116.066 113.507C113.55 111.677 110.757 110.305 107.686 109.39C104.614 108.475 101.412 108.018 98.0797 108.018C92.0025 108.018 86.497 109.553 81.5634 112.625C76.6624 115.696 72.758 120.221 69.85 126.2C66.9748 132.18 65.5372 139.515 65.5372 148.206C65.5372 156.897 66.9748 164.232 69.85 170.211C72.758 176.19 76.6624 180.716 81.5634 183.787C86.497 186.858 92.0025 188.394 98.0797 188.394C101.412 188.394 104.614 187.936 107.686 187.022C110.757 186.107 113.55 184.751 116.066 182.954C118.615 181.124 120.771 178.886 122.536 176.239C124.333 173.56 125.591 170.489 126.309 167.026H138.464C137.549 172.155 135.883 176.746 133.465 180.797C131.047 184.849 128.041 188.296 124.447 191.138C120.853 193.948 116.818 196.088 112.342 197.559C107.898 199.029 103.144 199.764 98.0797 199.764C89.5193 199.764 81.9065 197.673 75.2411 193.491C68.5758 189.309 63.3317 183.362 59.509 175.651C55.6862 167.94 53.7748 158.792 53.7748 148.206C53.7748 137.62 55.6862 128.471 59.509 120.76C63.3317 113.049 68.5758 107.103 75.2411 102.921C81.9065 98.7385 89.5193 96.6474 98.0797 96.6474C103.144 96.6474 107.898 97.3825 112.342 98.8528C116.818 100.323 120.853 102.48 124.447 105.322C128.041 108.132 131.047 111.563 133.465 115.614C135.883 119.633 137.549 124.224 138.464 129.386Z" fill="white"></path><path d="M240.247 129.386H228.093C227.374 125.89 226.116 122.819 224.319 120.172C222.555 117.526 220.398 115.304 217.85 113.507C215.334 111.677 212.541 110.305 209.469 109.39C206.398 108.475 203.196 108.018 199.863 108.018C193.786 108.018 188.281 109.553 183.347 112.625C178.446 115.696 174.542 120.221 171.634 126.2C168.758 132.18 167.321 139.515 167.321 148.206C167.321 156.897 168.758 164.232 171.634 170.211C174.542 176.19 178.446 180.716 183.347 183.787C188.281 186.858 193.786 188.394 199.863 188.394C203.196 188.394 206.398 187.936 209.469 187.022C212.541 186.107 215.334 184.751 217.85 182.954C220.398 181.124 222.555 178.886 224.319 176.239C226.116 173.56 227.374 170.489 228.093 167.026H240.247C239.333 172.155 237.666 176.746 235.248 180.797C232.831 184.849 229.825 188.296 226.231 191.138C222.637 193.948 218.601 196.088 214.125 197.559C209.682 199.029 204.928 199.764 199.863 199.764C191.303 199.764 183.69 197.673 177.025 193.491C170.359 189.309 165.115 183.362 161.293 175.651C157.47 167.94 155.558 158.792 155.558 148.206C155.558 137.62 157.47 128.471 161.293 120.76C165.115 113.049 170.359 107.103 177.025 102.921C183.69 98.7385 191.303 96.6474 199.863 96.6474C204.928 96.6474 209.682 97.3825 214.125 98.8528C218.601 100.323 222.637 102.48 226.231 105.322C229.825 108.132 232.831 111.563 235.248 115.614C237.666 119.633 239.333 124.224 240.247 129.386Z" fill="white"></path><path d="M277.749 34.9515C277.749 44.4792 270.025 52.2029 260.497 52.2029C250.969 52.2029 243.246 44.4792 243.246 34.9515C243.246 25.4237 250.969 17.7 260.497 17.7C270.025 17.7 277.749 25.4237 277.749 34.9515Z" fill="#FF6B00"></path></svg>