<svg width="1000" height="121" viewBox="0 0 1000 121" fill="none" xmlns="http://www.w3.org/2000/svg">
<path d="M45.6629 17.9222H37.6001C37.29 16.2005 36.7129 14.6855 35.8687 13.3771C35.0246 12.0686 33.9909 10.9582 32.7677 10.0457C31.5445 9.13325 30.1749 8.4446 28.6588 7.97976C27.16 7.51492 25.5664 7.2825 23.878 7.2825C20.8287 7.2825 18.098 8.04862 15.6861 9.58088C13.2914 11.1131 11.3963 13.3599 10.0009 16.3211C8.62262 19.2823 7.9335 22.8977 7.9335 27.1673C7.9335 31.4714 8.62262 35.104 10.0009 38.0653C11.3963 41.0265 13.3 43.2646 15.7119 44.7796C18.1239 46.2946 20.8373 47.0522 23.8522 47.0522C25.5233 47.0522 27.1083 46.8283 28.6071 46.3807C30.1232 45.9159 31.4928 45.2358 32.716 44.3406C33.9392 43.4453 34.9729 42.3521 35.817 41.0609C36.6784 39.7524 37.2728 38.2546 37.6001 36.5674L45.6629 36.5933C45.2322 39.1929 44.3966 41.586 43.1562 43.7725C41.933 45.9417 40.3566 47.8183 38.4271 49.4022C36.5148 50.9689 34.3268 52.1826 31.8632 53.0434C29.3996 53.9043 26.712 54.3347 23.8005 54.3347C19.2178 54.3347 15.1348 53.25 11.5514 51.0808C7.96796 48.8943 5.14256 45.7695 3.0752 41.7065C1.02507 37.6435 0 32.7971 0 27.1673C0 21.5204 1.03368 16.674 3.10104 12.6282C5.1684 8.56511 7.9938 5.44896 11.5772 3.27971C15.1607 1.09324 19.2351 0 23.8005 0C26.6087 0 29.2273 0.404584 31.6565 1.21375C34.1029 2.0057 36.2994 3.17641 38.2462 4.72588C40.193 6.25813 41.8038 8.13471 43.0786 10.3556C44.3535 12.5593 45.2149 15.0815 45.6629 17.9222Z" fill="white"/>
<path d="M106.285 27.1673C106.285 32.8143 105.251 37.6693 103.184 41.7323C101.116 45.7782 98.2825 48.8943 94.6818 51.0808C91.0984 53.25 87.0239 54.3347 82.4585 54.3347C77.8759 54.3347 73.7842 53.25 70.1836 51.0808C66.6001 48.8943 63.7747 45.7695 61.7074 41.7065C59.64 37.6435 58.6063 32.7971 58.6063 27.1673C58.6063 21.5204 59.64 16.674 61.7074 12.6282C63.7747 8.56511 66.6001 5.44896 70.1836 3.27971C73.7842 1.09324 77.8759 0 82.4585 0C87.0239 0 91.0984 1.09324 94.6818 3.27971C98.2825 5.44896 101.116 8.56511 103.184 12.6282C105.251 16.674 106.285 21.5204 106.285 27.1673ZM98.3772 27.1673C98.3772 22.8633 97.6795 19.2392 96.284 16.2952C94.9058 13.334 93.0107 11.0959 90.5988 9.58088C88.2041 8.04862 85.4907 7.2825 82.4585 7.2825C79.4092 7.2825 76.6871 8.04862 74.2924 9.58088C71.8978 11.0959 70.0027 13.334 68.6072 16.2952C67.229 19.2392 66.5398 22.8633 66.5398 27.1673C66.5398 31.4714 67.229 35.104 68.6072 38.0653C70.0027 41.0092 71.8978 43.2474 74.2924 44.7796C76.6871 46.2946 79.4092 47.0522 82.4585 47.0522C85.4907 47.0522 88.2041 46.2946 90.5988 44.7796C93.0107 43.2474 94.9058 41.0092 96.284 38.0653C97.6795 35.104 98.3772 31.4714 98.3772 27.1673Z" fill="white"/>
<path d="M164.051 0.723085V53.6116H156.712L129.811 14.8232H129.32V53.6116H121.334V0.723085H128.725L155.653 39.5631H156.144V0.723085H164.051Z" fill="white"/>
<path d="M224.751 17.9222H216.688C216.378 16.2005 215.801 14.6855 214.957 13.3771C214.113 12.0686 213.079 10.9582 211.856 10.0457C210.633 9.13325 209.263 8.4446 207.747 7.97976C206.248 7.51492 204.654 7.2825 202.966 7.2825C199.917 7.2825 197.186 8.04862 194.774 9.58088C192.379 11.1131 190.484 13.3599 189.089 16.3211C187.711 19.2823 187.022 22.8977 187.022 27.1673C187.022 31.4714 187.711 35.104 189.089 38.0653C190.484 41.0265 192.388 43.2646 194.8 44.7796C197.212 46.2946 199.925 47.0522 202.94 47.0522C204.611 47.0522 206.196 46.8283 207.695 46.3807C209.211 45.9159 210.581 45.2358 211.804 44.3406C213.027 43.4453 214.061 42.3521 214.905 41.0609C215.766 39.7524 216.361 38.2546 216.688 36.5674L224.751 36.5933C224.32 39.1929 223.485 41.586 222.244 43.7725C221.021 45.9417 219.445 47.8183 217.515 49.4022C215.603 50.9689 213.415 52.1826 210.951 53.0434C208.488 53.9043 205.8 54.3347 202.889 54.3347C198.306 54.3347 194.223 53.25 190.639 51.0808C187.056 48.8943 184.231 45.7695 182.163 41.7065C180.113 37.6435 179.088 32.7971 179.088 27.1673C179.088 21.5204 180.122 16.674 182.189 12.6282C184.256 8.56511 187.082 5.44896 190.665 3.27971C194.249 1.09324 198.323 0 202.889 0C205.697 0 208.315 0.404584 210.745 1.21375C213.191 2.0057 215.387 3.17641 217.334 4.72588C219.281 6.25813 220.892 8.13471 222.167 10.3556C223.442 12.5593 224.303 15.0815 224.751 17.9222Z" fill="white"/>
<path d="M239.4 53.6116V0.723085H272.581V7.59239H247.385V23.7069H270.85V30.5503H247.385V46.7423H272.891V53.6116H239.4Z" fill="white"/>
<path d="M288.341 53.6116V0.723085H307.206C311.324 0.723085 314.735 1.47199 317.44 2.96981C320.144 4.46763 322.169 6.51637 323.512 9.11603C324.856 11.6985 325.528 14.608 325.528 17.8447C325.528 21.0986 324.848 24.0254 323.487 26.625C322.143 29.2075 320.11 31.2562 317.388 32.7712C314.683 34.2691 311.28 35.018 307.18 35.018H294.208V28.252H306.457C309.058 28.252 311.169 27.8043 312.788 26.9091C314.407 25.9966 315.596 24.757 316.354 23.1904C317.112 21.6237 317.491 19.8418 317.491 17.8447C317.491 15.8476 317.112 14.0743 316.354 12.5249C315.596 10.9754 314.399 9.76165 312.762 8.88362C311.143 8.00558 309.006 7.56657 306.353 7.56657H296.327V53.6116H288.341Z" fill="white"/>
<path d="M337.373 7.59239V0.723085H378.333V7.59239H361.82V53.6116H353.86V7.59239H337.373Z" fill="white"/>
<path d="M400.463 0.723085V53.6116H392.478V0.723085H400.463Z" fill="white"/>
<path d="M421.812 0.723085L436.542 43.7983H437.136L451.866 0.723085H460.497L441.452 53.6116H432.226L413.181 0.723085H421.812Z" fill="white"/>
<path d="M473.234 53.6116V0.723085H506.415V7.59239H481.219V23.7069H504.684V30.5503H481.219V46.7423H506.725V53.6116H473.234Z" fill="white"/>
<path d="M590.485 17.9222H582.423C582.113 16.2005 581.536 14.6855 580.691 13.3771C579.847 12.0686 578.813 10.9582 577.59 10.0457C576.367 9.13325 574.998 8.4446 573.481 7.97976C571.983 7.51492 570.389 7.2825 568.701 7.2825C565.651 7.2825 562.921 8.04862 560.509 9.58088C558.114 11.1131 556.219 13.3599 554.824 16.3211C553.445 19.2823 552.756 22.8977 552.756 27.1673C552.756 31.4714 553.445 35.104 554.824 38.0653C556.219 41.0265 558.123 43.2646 560.535 44.7796C562.946 46.2946 565.66 47.0522 568.675 47.0522C570.346 47.0522 571.931 46.8283 573.43 46.3807C574.946 45.9159 576.315 45.2358 577.539 44.3406C578.762 43.4453 579.796 42.3521 580.64 41.0609C581.501 39.7524 582.095 38.2546 582.423 36.5674L590.485 36.5933C590.055 39.1929 589.219 41.586 587.979 43.7725C586.756 45.9417 585.179 47.8183 583.25 49.4022C581.337 50.9689 579.149 52.1826 576.686 53.0434C574.222 53.9043 571.535 54.3347 568.623 54.3347C564.041 54.3347 559.957 53.25 556.374 51.0808C552.791 48.8943 549.965 45.7695 547.898 41.7065C545.848 37.6435 544.823 32.7971 544.823 27.1673C544.823 21.5204 545.856 16.674 547.924 12.6282C549.991 8.56511 552.816 5.44896 556.4 3.27971C559.983 1.09324 564.058 0 568.623 0C571.431 0 574.05 0.404584 576.479 1.21375C578.926 2.0057 581.122 3.17641 583.069 4.72588C585.016 6.25813 586.626 8.13471 587.901 10.3556C589.176 12.5593 590.038 15.0815 590.485 17.9222Z" fill="white"/>
<path d="M651.108 27.1673C651.108 32.8143 650.074 37.6693 648.007 41.7323C645.939 45.7782 643.105 48.8943 639.505 51.0808C635.921 53.25 631.847 54.3347 627.281 54.3347C622.699 54.3347 618.607 53.25 615.006 51.0808C611.423 48.8943 608.597 45.7695 606.53 41.7065C604.463 37.6435 603.429 32.7971 603.429 27.1673C603.429 21.5204 604.463 16.674 606.53 12.6282C608.597 8.56511 611.423 5.44896 615.006 3.27971C618.607 1.09324 622.699 0 627.281 0C631.847 0 635.921 1.09324 639.505 3.27971C643.105 5.44896 645.939 8.56511 648.007 12.6282C650.074 16.674 651.108 21.5204 651.108 27.1673ZM643.2 27.1673C643.2 22.8633 642.502 19.2392 641.107 16.2952C639.728 13.334 637.833 11.0959 635.421 9.58088C633.027 8.04862 630.313 7.2825 627.281 7.2825C624.232 7.2825 621.51 8.04862 619.115 9.58088C616.72 11.0959 614.825 13.334 613.43 16.2952C612.052 19.2392 611.363 22.8633 611.363 27.1673C611.363 31.4714 612.052 35.104 613.43 38.0653C614.825 41.0092 616.72 43.2474 619.115 44.7796C621.51 46.2946 624.232 47.0522 627.281 47.0522C630.313 47.0522 633.027 46.2946 635.421 44.7796C637.833 43.2474 639.728 41.0092 641.107 38.0653C642.502 35.104 643.2 31.4714 643.2 27.1673Z" fill="white"/>
<path d="M666.157 0.723085H675.848L692.697 41.8356H693.317L710.166 0.723085H719.857V53.6116H712.259V15.3397H711.768L696.16 53.5341H689.854L674.246 15.3139H673.755V53.6116H666.157V0.723085Z" fill="white"/>
<path d="M736.56 0.723085H746.251L763.1 41.8356H763.72L780.569 0.723085H790.26V53.6116H782.663V15.3397H782.172L766.563 53.5341H760.258L744.649 15.3139H744.158V53.6116H736.56V0.723085Z" fill="white"/>
<path d="M806.964 53.6116V0.723085H840.145V7.59239H814.949V23.7069H838.413V30.5503H814.949V46.7423H840.455V53.6116H806.964Z" fill="white"/>
<path d="M855.905 53.6116V0.723085H874.77C878.87 0.723085 882.272 1.42895 884.977 2.84069C887.699 4.25243 889.732 6.20648 891.076 8.70284C892.42 11.182 893.092 14.0485 893.092 17.3024C893.092 20.5391 892.411 23.3884 891.05 25.8503C889.706 28.295 887.673 30.1974 884.951 31.5575C882.247 32.9176 878.844 33.5976 874.744 33.5976H860.453V26.7283H874.02C876.604 26.7283 878.706 26.3582 880.326 25.6179C881.962 24.8776 883.16 23.8015 883.918 22.3898C884.676 20.9781 885.055 19.2823 885.055 17.3024C885.055 15.3053 884.667 13.5751 883.892 12.1117C883.134 10.6483 881.937 9.52923 880.3 8.75449C878.68 7.96254 876.553 7.56657 873.917 7.56657H863.89V53.6116H855.905ZM882.031 29.7498L895.107 53.6116H886.011L873.193 29.7498H882.031Z" fill="white"/>
<path d="M951.86 17.9222H943.797C943.487 16.2005 942.91 14.6855 942.065 13.3771C941.221 12.0686 940.188 10.9582 938.964 10.0457C937.741 9.13325 936.372 8.4446 934.856 7.97976C933.357 7.51492 931.763 7.2825 930.075 7.2825C927.025 7.2825 924.295 8.04862 921.883 9.58088C919.488 11.1131 917.593 13.3599 916.198 16.3211C914.819 19.2823 914.13 22.8977 914.13 27.1673C914.13 31.4714 914.819 35.104 916.198 38.0653C917.593 41.0265 919.497 43.2646 921.909 44.7796C924.321 46.2946 927.034 47.0522 930.049 47.0522C931.72 47.0522 933.305 46.8283 934.804 46.3807C936.32 45.9159 937.689 45.2358 938.913 44.3406C940.136 43.4453 941.17 42.3521 942.014 41.0609C942.875 39.7524 943.47 38.2546 943.797 36.5674L951.86 36.5933C951.429 39.1929 950.593 41.586 949.353 43.7725C948.13 45.9417 946.553 47.8183 944.624 49.4022C942.711 50.9689 940.524 52.1826 938.06 53.0434C935.596 53.9043 932.909 54.3347 929.997 54.3347C925.415 54.3347 921.332 53.25 917.748 51.0808C914.165 48.8943 911.339 45.7695 909.272 41.7065C907.222 37.6435 906.197 32.7971 906.197 27.1673C906.197 21.5204 907.23 16.674 909.298 12.6282C911.365 8.56511 914.191 5.44896 917.774 3.27971C921.357 1.09324 925.432 0 929.997 0C932.805 0 935.424 0.404584 937.853 1.21375C940.3 2.0057 942.496 3.17641 944.443 4.72588C946.39 6.25813 948.001 8.13471 949.275 10.3556C950.55 12.5593 951.412 15.0815 951.86 17.9222Z" fill="white"/>
<path d="M966.509 53.6116V0.723085H999.69V7.59239H974.494V23.7069H997.958V30.5503H974.494V46.7423H1000V53.6116H966.509Z" fill="white"/>
<path d="M171.113 120.241C169.834 120.241 168.694 120.022 167.692 119.583C166.697 119.144 165.906 118.534 165.318 117.752C164.737 116.965 164.42 116.051 164.368 115.012H166.81C166.862 115.651 167.082 116.203 167.469 116.668C167.857 117.126 168.364 117.481 168.991 117.733C169.617 117.985 170.312 118.111 171.074 118.111C171.927 118.111 172.683 117.962 173.342 117.665C174.001 117.368 174.518 116.955 174.892 116.426C175.267 115.896 175.455 115.283 175.455 114.586C175.455 113.856 175.274 113.214 174.912 112.659C174.55 112.097 174.02 111.658 173.323 111.342C172.625 111.025 171.772 110.867 170.764 110.867H169.175V108.736H170.764C171.552 108.736 172.244 108.594 172.838 108.31C173.439 108.026 173.907 107.626 174.243 107.11C174.586 106.593 174.757 105.986 174.757 105.289C174.757 104.617 174.608 104.033 174.311 103.536C174.014 103.039 173.594 102.652 173.051 102.374C172.515 102.096 171.882 101.958 171.152 101.958C170.467 101.958 169.821 102.083 169.214 102.335C168.613 102.581 168.122 102.939 167.741 103.41C167.359 103.875 167.153 104.437 167.12 105.095H164.795C164.833 104.056 165.147 103.145 165.735 102.364C166.323 101.577 167.091 100.963 168.041 100.524C168.997 100.085 170.047 99.8658 171.191 99.8658C172.418 99.8658 173.471 100.114 174.35 100.611C175.228 101.102 175.904 101.751 176.375 102.558C176.847 103.365 177.083 104.237 177.083 105.173C177.083 106.29 176.789 107.242 176.201 108.03C175.619 108.817 174.828 109.363 173.826 109.666V109.821C175.08 110.028 176.059 110.56 176.763 111.419C177.467 112.271 177.819 113.327 177.819 114.586C177.819 115.664 177.525 116.632 176.937 117.491C176.356 118.343 175.561 119.015 174.553 119.505C173.545 119.996 172.399 120.241 171.113 120.241Z" fill="white"/>
<path d="M203.108 120.241C202.294 120.228 201.48 120.073 200.666 119.776C199.852 119.479 199.109 118.979 198.438 118.275C197.766 117.565 197.226 116.606 196.819 115.399C196.412 114.185 196.209 112.662 196.209 110.828C196.209 109.072 196.373 107.516 196.703 106.16C197.032 104.798 197.51 103.652 198.137 102.723C198.764 101.786 199.52 101.076 200.405 100.592C201.296 100.108 202.301 99.8658 203.419 99.8658C204.53 99.8658 205.518 100.088 206.384 100.534C207.256 100.973 207.967 101.586 208.516 102.374C209.065 103.162 209.42 104.069 209.582 105.095H207.217C206.998 104.204 206.571 103.465 205.938 102.878C205.305 102.29 204.465 101.996 203.419 101.996C201.881 101.996 200.67 102.664 199.785 104.001C198.906 105.337 198.463 107.213 198.457 109.627H198.612C198.974 109.079 199.403 108.611 199.901 108.223C200.405 107.829 200.96 107.526 201.568 107.313C202.175 107.1 202.818 106.993 203.496 106.993C204.633 106.993 205.673 107.277 206.616 107.846C207.56 108.407 208.316 109.185 208.884 110.179C209.453 111.167 209.737 112.3 209.737 113.579C209.737 114.805 209.462 115.929 208.913 116.949C208.364 117.962 207.592 118.769 206.597 119.37C205.609 119.964 204.446 120.254 203.108 120.241ZM203.108 118.111C203.922 118.111 204.653 117.907 205.299 117.501C205.951 117.094 206.465 116.548 206.839 115.864C207.221 115.18 207.411 114.418 207.411 113.579C207.411 112.759 207.227 112.013 206.859 111.342C206.497 110.664 205.996 110.125 205.357 109.724C204.724 109.324 204 109.124 203.186 109.124C202.572 109.124 202 109.246 201.471 109.492C200.941 109.731 200.476 110.06 200.075 110.48C199.681 110.899 199.371 111.38 199.145 111.923C198.919 112.458 198.806 113.023 198.806 113.617C198.806 114.405 198.99 115.141 199.358 115.825C199.733 116.51 200.243 117.062 200.889 117.481C201.542 117.901 202.281 118.111 203.108 118.111Z" fill="white"/>
<path d="M234.757 120.241C233.297 120.241 232.054 119.844 231.026 119.05C229.999 118.25 229.214 117.091 228.672 115.573C228.129 114.05 227.858 112.21 227.858 110.054C227.858 107.91 228.129 106.08 228.672 104.563C229.221 103.039 230.009 101.877 231.036 101.076C232.07 100.269 233.31 99.8658 234.757 99.8658C236.205 99.8658 237.442 100.269 238.469 101.076C239.503 101.877 240.291 103.039 240.834 104.563C241.383 106.08 241.657 107.91 241.657 110.054C241.657 112.21 241.386 114.05 240.843 115.573C240.301 117.091 239.516 118.25 238.488 119.05C237.461 119.844 236.217 120.241 234.757 120.241ZM234.757 118.111C236.205 118.111 237.329 117.413 238.13 116.019C238.931 114.624 239.331 112.636 239.331 110.054C239.331 108.336 239.147 106.874 238.779 105.667C238.417 104.459 237.894 103.539 237.209 102.907C236.531 102.274 235.714 101.958 234.757 101.958C233.323 101.958 232.202 102.664 231.395 104.078C230.587 105.486 230.183 107.478 230.183 110.054C230.183 111.771 230.364 113.23 230.726 114.431C231.088 115.632 231.608 116.545 232.286 117.171C232.971 117.798 233.795 118.111 234.757 118.111Z" fill="white"/>
<path d="M264.224 108.891C263.403 108.891 262.654 108.691 261.975 108.291C261.303 107.891 260.767 107.355 260.367 106.683C259.966 106.006 259.766 105.257 259.766 104.437C259.766 103.617 259.966 102.871 260.367 102.2C260.767 101.522 261.303 100.983 261.975 100.582C262.654 100.182 263.403 99.982 264.224 99.982C265.044 99.982 265.79 100.182 266.462 100.582C267.14 100.983 267.68 101.522 268.08 102.2C268.481 102.871 268.681 103.617 268.681 104.437C268.681 105.257 268.481 106.006 268.08 106.683C267.68 107.355 267.14 107.891 266.462 108.291C265.79 108.691 265.044 108.891 264.224 108.891ZM264.224 106.955C264.689 106.955 265.112 106.842 265.493 106.616C265.874 106.39 266.178 106.086 266.404 105.705C266.63 105.324 266.743 104.902 266.743 104.437C266.743 103.972 266.63 103.549 266.404 103.168C266.178 102.787 265.874 102.484 265.493 102.258C265.112 102.032 264.689 101.919 264.224 101.919C263.758 101.919 263.335 102.032 262.954 102.258C262.573 102.484 262.269 102.787 262.043 103.168C261.817 103.549 261.704 103.972 261.704 104.437C261.704 104.902 261.817 105.324 262.043 105.705C262.269 106.086 262.573 106.39 262.954 106.616C263.335 106.842 263.758 106.955 264.224 106.955Z" fill="white"/>
<path d="M309.964 119.97V100.137H321.942V102.267H312.367V108.969H321.322V111.099H312.367V117.84H322.097V119.97H309.964Z" fill="white"/>
<path d="M356.98 106.335H354.577C354.435 105.644 354.186 105.037 353.831 104.514C353.482 103.991 353.055 103.552 352.552 103.197C352.054 102.836 351.502 102.564 350.894 102.384C350.287 102.203 349.654 102.112 348.995 102.112C347.793 102.112 346.705 102.416 345.729 103.023C344.76 103.63 343.988 104.524 343.413 105.705C342.845 106.887 342.56 108.336 342.56 110.054C342.56 111.771 342.845 113.22 343.413 114.402C343.988 115.583 344.76 116.477 345.729 117.084C346.705 117.691 347.793 117.995 348.995 117.995C349.654 117.995 350.287 117.904 350.894 117.723C351.502 117.543 352.054 117.275 352.552 116.92C353.055 116.558 353.482 116.116 353.831 115.593C354.186 115.063 354.435 114.457 354.577 113.772H356.98C356.799 114.786 356.47 115.693 355.992 116.493C355.514 117.294 354.919 117.975 354.209 118.537C353.498 119.092 352.7 119.515 351.815 119.805C350.936 120.096 349.996 120.241 348.995 120.241C347.302 120.241 345.797 119.828 344.479 119.002C343.161 118.175 342.124 117 341.368 115.477C340.613 113.953 340.235 112.145 340.235 110.054C340.235 107.962 340.613 106.154 341.368 104.63C342.124 103.107 343.161 101.932 344.479 101.105C345.797 100.279 347.302 99.8658 348.995 99.8658C349.996 99.8658 350.936 100.011 351.815 100.302C352.7 100.592 353.498 101.018 354.209 101.58C354.919 102.135 355.514 102.813 355.992 103.614C356.47 104.408 356.799 105.315 356.98 106.335Z" fill="white"/>
<path d="M392.346 110.054C392.346 112.145 391.968 113.953 391.212 115.477C390.456 117 389.419 118.175 388.101 119.002C386.783 119.828 385.278 120.241 383.585 120.241C381.892 120.241 380.387 119.828 379.069 119.002C377.751 118.175 376.714 117 375.959 115.477C375.203 113.953 374.825 112.145 374.825 110.054C374.825 107.962 375.203 106.154 375.959 104.63C376.714 103.107 377.751 101.932 379.069 101.105C380.387 100.279 381.892 99.8658 383.585 99.8658C385.278 99.8658 386.783 100.279 388.101 101.105C389.419 101.932 390.456 103.107 391.212 104.63C391.968 106.154 392.346 107.962 392.346 110.054ZM390.02 110.054C390.02 108.336 389.732 106.887 389.157 105.705C388.589 104.524 387.817 103.63 386.841 103.023C385.872 102.416 384.787 102.112 383.585 102.112C382.383 102.112 381.295 102.416 380.319 103.023C379.35 103.63 378.578 104.524 378.003 105.705C377.435 106.887 377.15 108.336 377.15 110.054C377.15 111.771 377.435 113.22 378.003 114.402C378.578 115.583 379.35 116.477 380.319 117.084C381.295 117.691 382.383 117.995 383.585 117.995C384.787 117.995 385.872 117.691 386.841 117.084C387.817 116.477 388.589 115.583 389.157 114.402C389.732 113.22 390.02 111.771 390.02 110.054Z" fill="white"/>
<path d="M411.123 100.137H413.991L420.736 116.6H420.969L427.713 100.137H430.582V119.97H428.334V104.902H428.14L421.938 119.97H419.767L413.565 104.902H413.371V119.97H411.123V100.137Z" fill="white"/>
<path d="M450.137 100.137H453.005L459.75 116.6H459.983L466.727 100.137H469.596V119.97H467.348V104.902H467.154L460.952 119.97H458.781L452.579 104.902H452.385V119.97H450.137V100.137Z" fill="white"/>
<path d="M489.151 119.97V100.137H501.128V102.267H491.554V108.969H500.508V111.099H491.554V117.84H501.283V119.97H489.151Z" fill="white"/>
<path d="M520.196 119.97V100.137H526.902C528.453 100.137 529.726 100.402 530.721 100.931C531.715 101.454 532.452 102.174 532.93 103.091C533.408 104.007 533.647 105.05 533.647 106.219C533.647 107.387 533.408 108.423 532.93 109.327C532.452 110.231 531.719 110.941 530.73 111.458C529.742 111.968 528.479 112.223 526.941 112.223H521.514V110.054H526.864C527.923 110.054 528.776 109.899 529.422 109.589C530.074 109.279 530.546 108.84 530.837 108.272C531.134 107.697 531.283 107.013 531.283 106.219C531.283 105.424 531.134 104.73 530.837 104.136C530.54 103.543 530.065 103.084 529.412 102.761C528.76 102.432 527.897 102.267 526.825 102.267H522.6V119.97H520.196ZM529.538 111.061L534.422 119.97H531.631L526.825 111.061H529.538Z" fill="white"/>
<path d="M568.358 106.335H565.955C565.813 105.644 565.564 105.037 565.209 104.514C564.86 103.991 564.434 103.552 563.93 103.197C563.432 102.836 562.88 102.564 562.273 102.384C561.665 102.203 561.032 102.112 560.373 102.112C559.172 102.112 558.083 102.416 557.107 103.023C556.138 103.63 555.366 104.524 554.791 105.705C554.223 106.887 553.939 108.336 553.939 110.054C553.939 111.771 554.223 113.22 554.791 114.402C555.366 115.583 556.138 116.477 557.107 117.084C558.083 117.691 559.172 117.995 560.373 117.995C561.032 117.995 561.665 117.904 562.273 117.723C562.88 117.543 563.432 117.275 563.93 116.92C564.434 116.558 564.86 116.116 565.209 115.593C565.564 115.063 565.813 114.457 565.955 113.772H568.358C568.177 114.786 567.848 115.693 567.37 116.493C566.892 117.294 566.297 117.975 565.587 118.537C564.876 119.092 564.078 119.515 563.193 119.805C562.315 120.096 561.375 120.241 560.373 120.241C558.681 120.241 557.175 119.828 555.857 119.002C554.539 118.175 553.502 117 552.747 115.477C551.991 113.953 551.613 112.145 551.613 110.054C551.613 107.962 551.991 106.154 552.747 104.63C553.502 103.107 554.539 101.932 555.857 101.105C557.175 100.279 558.681 99.8658 560.373 99.8658C561.375 99.8658 562.315 100.011 563.193 100.302C564.078 100.592 564.876 101.018 565.587 101.58C566.297 102.135 566.892 102.813 567.37 103.614C567.848 104.408 568.177 105.315 568.358 106.335Z" fill="white"/>
<path d="M586.978 119.97V100.137H598.956V102.267H589.381V108.969H598.336V111.099H589.381V117.84H599.111V119.97H586.978Z" fill="white"/>
<path d="M651.289 105.095C651.172 104.114 650.701 103.352 649.874 102.81C649.047 102.267 648.033 101.996 646.831 101.996C645.952 101.996 645.183 102.138 644.525 102.422C643.872 102.706 643.362 103.097 642.993 103.594C642.632 104.091 642.451 104.656 642.451 105.289C642.451 105.818 642.577 106.273 642.829 106.654C643.087 107.029 643.417 107.342 643.817 107.594C644.218 107.839 644.638 108.042 645.077 108.204C645.516 108.359 645.92 108.485 646.288 108.582L648.304 109.124C648.821 109.259 649.396 109.447 650.029 109.686C650.668 109.924 651.279 110.25 651.86 110.664C652.448 111.07 652.933 111.593 653.314 112.232C653.695 112.872 653.886 113.656 653.886 114.586C653.886 115.657 653.605 116.626 653.043 117.491C652.487 118.356 651.673 119.044 650.601 119.554C649.535 120.064 648.239 120.319 646.715 120.319C645.293 120.319 644.063 120.09 643.022 119.631C641.989 119.173 641.175 118.534 640.58 117.714C639.992 116.894 639.66 115.941 639.582 114.857H642.063C642.128 115.606 642.38 116.226 642.819 116.716C643.265 117.2 643.827 117.562 644.505 117.801C645.19 118.033 645.926 118.149 646.715 118.149C647.632 118.149 648.456 118.001 649.186 117.704C649.916 117.401 650.494 116.981 650.92 116.445C651.347 115.903 651.56 115.27 651.56 114.547C651.56 113.888 651.376 113.353 651.008 112.939C650.639 112.526 650.155 112.19 649.554 111.932C648.953 111.674 648.304 111.448 647.606 111.254L645.164 110.557C643.614 110.112 642.386 109.476 641.482 108.649C640.577 107.823 640.125 106.742 640.125 105.405C640.125 104.295 640.425 103.326 641.026 102.5C641.633 101.667 642.447 101.021 643.468 100.563C644.495 100.098 645.642 99.8658 646.908 99.8658C648.188 99.8658 649.325 100.095 650.32 100.553C651.314 101.005 652.103 101.625 652.684 102.413C653.272 103.2 653.582 104.095 653.614 105.095H651.289Z" fill="white"/>
<path d="M672.573 119.97V100.137H684.551V102.267H674.977V108.969H683.931V111.099H674.977V117.84H684.706V119.97H672.573Z" fill="white"/>
<path d="M703.619 119.97V100.137H710.325C711.876 100.137 713.148 100.402 714.143 100.931C715.138 101.454 715.875 102.174 716.353 103.091C716.831 104.007 717.07 105.05 717.07 106.219C717.07 107.387 716.831 108.423 716.353 109.327C715.875 110.231 715.141 110.941 714.153 111.458C713.164 111.968 711.901 112.223 710.364 112.223H704.937V110.054H710.286C711.346 110.054 712.199 109.899 712.845 109.589C713.497 109.279 713.969 108.84 714.26 108.272C714.557 107.697 714.705 107.013 714.705 106.219C714.705 105.424 714.557 104.73 714.26 104.136C713.962 103.543 713.488 103.084 712.835 102.761C712.182 102.432 711.32 102.267 710.248 102.267H706.022V119.97H703.619ZM712.961 111.061L717.845 119.97H715.054L710.248 111.061H712.961Z" fill="white"/>
<path d="M736.172 100.137L742.064 116.832H742.296L748.188 100.137H750.708L743.42 119.97H740.939L733.652 100.137H736.172Z" fill="white"/>
<path d="M770.939 100.137V119.97H768.535V100.137H770.939Z" fill="white"/>
<path d="M806.464 106.335H804.061C803.918 105.644 803.67 105.037 803.314 104.514C802.966 103.991 802.539 103.552 802.035 103.197C801.538 102.836 800.985 102.564 800.378 102.384C799.771 102.203 799.138 102.112 798.479 102.112C797.277 102.112 796.188 102.416 795.213 103.023C794.244 103.63 793.472 104.524 792.897 105.705C792.328 106.887 792.044 108.336 792.044 110.054C792.044 111.771 792.328 113.22 792.897 114.402C793.472 115.583 794.244 116.477 795.213 117.084C796.188 117.691 797.277 117.995 798.479 117.995C799.138 117.995 799.771 117.904 800.378 117.723C800.985 117.543 801.538 117.275 802.035 116.92C802.539 116.558 802.966 116.116 803.314 115.593C803.67 115.063 803.918 114.457 804.061 113.772H806.464C806.283 114.786 805.953 115.693 805.475 116.493C804.997 117.294 804.403 117.975 803.692 118.537C802.982 119.092 802.184 119.515 801.299 119.805C800.42 120.096 799.48 120.241 798.479 120.241C796.786 120.241 795.281 119.828 793.963 119.002C792.645 118.175 791.608 117 790.852 115.477C790.096 113.953 789.718 112.145 789.718 110.054C789.718 107.962 790.096 106.154 790.852 104.63C791.608 103.107 792.645 101.932 793.963 101.105C795.281 100.279 796.786 99.8658 798.479 99.8658C799.48 99.8658 800.42 100.011 801.299 100.302C802.184 100.592 802.982 101.018 803.692 101.58C804.403 102.135 804.997 102.813 805.475 103.614C805.953 104.408 806.283 105.315 806.464 106.335Z" fill="white"/>
<path d="M825.084 119.97V100.137H837.061V102.267H827.487V108.969H836.441V111.099H827.487V117.84H837.216V119.97H825.084Z" fill="white"/>
</svg>
